<svg xmlns="http://www.w3.org/2000/svg" viewBox="0 0 318.36 423.89"><defs><style>.cls-1{fill:#fee84d;}.cls-2{fill:#db1f26;}.cls-3{fill:#fff;}.cls-4,.cls-6{fill:#231f20;}.cls-5{fill:#fff9da;}.cls-6{stroke:#231f20;stroke-miterlimit:10;stroke-width:3px;}</style></defs><g id="Layer_2" data-name="Layer 2"><g id="Layer_1-2" data-name="Layer 1"><circle class="cls-1" cx="160.38" cy="111.5" r="111.5"/><ellipse class="cls-1" cx="156.99" cy="297.44" rx="108.11" ry="118.44"/><circle class="cls-1" cx="60.7" cy="381.39" r="42.5"/><circle class="cls-1" cx="254.34" cy="381.39" r="42.5"/><ellipse class="cls-1" cx="53.26" cy="223" rx="55.48" ry="35.05" transform="translate(-81.23 37.32) rotate(-22.48)"/><ellipse class="cls-1" cx="259.94" cy="223.65" rx="35.05" ry="55.8" transform="translate(-49.02 372.43) rotate(-66.42)"/><ellipse class="cls-1" cx="53.26" cy="45.88" rx="55.75" ry="35.25" transform="translate(-13.5 23.85) rotate(-22.48)"/><ellipse class="cls-1" cx="265.1" cy="45.88" rx="35.25" ry="55.75" transform="translate(121.33 273.29) rotate(-67.52)"/><ellipse class="cls-2" cx="120.88" cy="97.56" rx="14.12" ry="10.86"/><ellipse class="cls-2" cx="197.72" cy="96.89" rx="14.12" ry="11.53"/><ellipse class="cls-3" cx="194.8" cy="91.47" rx="7.06" ry="4.77"/><ellipse class="cls-3" cx="118" cy="92.67" rx="7.06" ry="4.53"/><ellipse class="cls-4" cx="160.86" cy="123.68" rx="12.15" ry="8.79"/><circle class="cls-5" cx="156.99" cy="307.11" r="90.21"/><line class="cls-6" x1="159.47" y1="127.88" x2="143.02" y2="144.34"/><line class="cls-6" x1="160.86" y1="127.88" x2="177.32" y2="144.34"/></g></g></svg>